<svg id="svg" version="1.1" xmlns="http://www.w3.org/2000/svg" xmlns:xlink="http://www.w3.org/1999/xlink" width="400" height="400" viewBox="0, 0, 400,400"><g id="svgg"><path id="path0" d="M196.100 44.665 C 195.825 44.776,195.600 45.314,195.600 45.860 C 195.600 47.116,197.697 47.105,197.936 45.848 C 198.133 44.808,197.213 44.216,196.100 44.665 M198.800 48.696 C 198.800 49.146,199.044 49.608,199.343 49.723 C 199.642 49.837,200.004 50.521,200.148 51.241 C 200.487 52.935,205.772 63.300,218.586 87.400 C 223.161 96.003,231.688 112.105,236.805 121.800 C 239.939 127.740,243.270 134.040,244.205 135.800 C 245.141 137.560,249.102 145.030,253.009 152.400 C 256.916 159.770,260.782 167.060,261.600 168.600 C 263.458 172.097,269.252 183.014,271.790 187.800 C 272.840 189.780,274.195 192.300,274.802 193.400 C 275.408 194.500,276.441 196.390,277.097 197.600 C 283.281 209.007,302.391 243.707,303.760 246.015 C 304.222 246.793,304.816 247.783,305.081 248.215 C 305.345 248.647,306.875 251.325,308.481 254.167 C 311.493 259.499,312.407 261.076,314.800 265.066 C 315.570 266.350,316.470 267.883,316.800 268.473 C 317.410 269.566,320.257 274.450,320.995 275.671 C 321.218 276.040,322.118 277.570,322.995 279.071 C 323.872 280.572,324.772 282.111,324.995 282.492 C 325.218 282.873,326.300 284.653,327.400 286.448 C 331.095 292.478,331.427 293.381,330.296 294.320 C 329.961 294.598,316.330 294.885,289.596 295.177 C 250.738 295.600,233.390 295.970,213.600 296.796 C 208.430 297.012,198.260 297.377,191.000 297.607 C 183.740 297.837,172.220 298.292,165.400 298.619 C 139.519 299.858,58.881 300.544,56.026 299.549 C 53.416 298.639,53.704 297.746,59.460 288.904 C 61.573 285.657,63.884 282.100,64.595 281.000 C 65.306 279.900,67.114 277.110,68.613 274.800 C 70.111 272.490,72.531 268.710,73.990 266.400 C 75.448 264.090,77.712 260.519,79.021 258.464 C 88.370 243.783,94.447 233.782,104.216 217.000 C 110.467 206.262,123.854 182.223,134.399 162.800 C 137.326 157.410,140.863 150.895,142.260 148.321 C 143.657 145.748,144.800 143.559,144.800 143.457 C 144.800 143.355,145.495 142.041,146.343 140.536 C 147.192 139.031,149.467 134.830,151.397 131.200 C 153.328 127.570,155.536 123.430,156.303 122.000 C 157.071 120.570,158.599 117.690,159.699 115.600 C 160.799 113.510,162.195 110.900,162.800 109.800 C 163.405 108.700,165.026 105.640,166.402 103.000 C 167.778 100.360,169.217 97.660,169.598 97.000 C 169.980 96.340,171.798 92.920,173.639 89.400 C 175.479 85.880,177.563 81.920,178.270 80.600 C 178.978 79.280,180.402 76.580,181.435 74.600 C 182.468 72.620,184.191 69.380,185.264 67.400 C 192.046 54.879,194.688 48.800,193.346 48.800 C 193.046 48.800,192.800 48.980,192.800 49.200 C 192.800 49.420,192.395 49.998,191.900 50.484 C 191.405 50.970,190.640 51.946,190.200 52.652 C 189.760 53.357,188.725 54.940,187.900 56.167 C 185.809 59.279,184.580 61.206,177.412 72.600 C 173.953 78.100,170.707 83.230,170.200 84.000 C 167.582 87.975,155.150 107.770,145.079 124.000 C 121.932 161.302,95.948 204.751,86.591 221.800 C 85.987 222.900,85.363 223.980,85.203 224.200 C 85.044 224.420,83.871 226.580,82.596 229.000 C 81.322 231.420,79.434 234.930,78.402 236.800 C 76.111 240.949,71.740 249.236,64.791 262.600 C 62.960 266.120,60.522 270.800,59.371 273.000 C 58.221 275.200,55.995 279.520,54.425 282.600 C 52.855 285.680,51.395 288.470,51.181 288.800 C 50.967 289.130,50.520 290.030,50.189 290.800 C 49.857 291.570,48.329 294.612,46.793 297.560 C 44.126 302.679,43.543 304.471,44.379 304.987 C 44.587 305.116,53.452 305.019,64.079 304.772 C 84.104 304.306,136.924 304.773,155.800 305.582 C 160.640 305.790,170.270 306.153,177.200 306.389 C 184.130 306.625,193.670 306.993,198.400 307.207 C 234.910 308.859,351.755 310.460,355.839 309.364 C 356.846 309.093,356.718 307.780,355.470 305.600 C 355.029 304.830,354.066 303.059,353.330 301.664 C 352.595 300.269,349.680 294.959,346.854 289.864 C 344.028 284.769,341.081 279.430,340.306 278.000 C 339.024 275.636,338.355 274.433,335.822 269.941 C 335.370 269.138,334.208 267.068,333.241 265.341 C 332.273 263.613,329.681 259.050,327.480 255.200 C 325.279 251.350,322.460 246.400,321.217 244.200 C 317.404 237.456,314.083 231.845,295.882 201.400 C 290.415 192.255,278.523 172.705,275.808 168.400 C 275.322 167.630,272.587 163.220,269.730 158.600 C 266.872 153.980,262.029 146.197,258.967 141.304 C 255.905 136.411,253.213 132.066,252.985 131.649 C 252.757 131.231,252.082 130.149,251.485 129.245 C 250.888 128.340,249.981 126.925,249.469 126.100 C 248.957 125.275,248.026 123.790,247.400 122.800 C 246.774 121.810,245.870 120.370,245.391 119.600 C 244.913 118.830,243.889 117.210,243.117 116.000 C 242.344 114.790,240.489 111.820,238.994 109.400 C 237.500 106.980,235.699 104.100,234.994 103.000 C 234.288 101.900,232.761 99.470,231.600 97.600 C 230.439 95.730,228.912 93.300,228.207 92.200 C 223.690 85.153,221.349 81.483,221.000 80.898 C 220.780 80.529,219.610 78.662,218.400 76.749 C 215.463 72.105,213.526 68.999,210.576 64.200 C 205.888 56.573,201.165 49.635,200.647 49.614 C 200.453 49.606,199.958 49.212,199.547 48.739 C 198.808 47.887,198.800 47.887,198.800 48.696 " stroke="none" fill="#b99d5b" fill-rule="evenodd"></path><path id="path1" d="M78.815 2.184 C 78.015 3.036,77.481 3.184,74.845 3.284 C 72.128 3.388,71.758 3.497,71.405 4.300 C 71.051 5.108,70.728 5.200,68.263 5.200 C 65.824 5.200,65.429 5.310,64.745 6.180 C 64.134 6.956,63.541 7.184,61.887 7.280 C 60.183 7.378,59.729 7.562,59.413 8.281 C 59.122 8.944,58.626 9.192,57.413 9.281 C 56.200 9.371,55.704 9.619,55.413 10.282 C 55.110 10.973,54.634 11.189,53.213 11.282 C 51.681 11.382,51.380 11.539,51.272 12.300 C 51.169 13.029,50.890 13.200,49.801 13.200 C 48.523 13.200,47.200 14.028,47.200 14.829 C 47.200 15.033,46.821 15.200,46.358 15.200 C 45.894 15.200,45.170 15.638,44.749 16.174 C 44.327 16.710,43.491 17.205,42.891 17.274 C 42.227 17.351,41.648 17.746,41.412 18.284 C 41.199 18.770,40.659 19.220,40.212 19.284 C 39.721 19.354,39.349 19.756,39.272 20.300 C 39.180 20.949,38.876 21.200,38.179 21.200 C 37.276 21.200,36.494 21.758,33.552 24.500 C 32.903 25.105,32.211 25.600,32.013 25.600 C 31.816 25.600,31.546 25.941,31.414 26.357 C 31.282 26.773,30.806 27.210,30.357 27.327 C 29.908 27.445,29.447 27.897,29.333 28.333 C 29.219 28.769,28.769 29.219,28.333 29.333 C 27.897 29.447,27.445 29.908,27.327 30.357 C 27.210 30.806,26.773 31.282,26.357 31.414 C 25.941 31.546,25.600 31.816,25.600 32.013 C 25.600 32.211,25.105 32.903,24.500 33.552 C 21.758 36.494,21.200 37.276,21.200 38.179 C 21.200 38.876,20.949 39.180,20.300 39.272 C 19.756 39.349,19.354 39.721,19.284 40.212 C 19.220 40.659,18.770 41.199,18.284 41.412 C 17.746 41.648,17.351 42.227,17.274 42.891 C 17.205 43.491,16.710 44.327,16.174 44.749 C 15.638 45.170,15.200 45.829,15.200 46.212 C 15.200 46.595,14.750 47.325,14.200 47.835 C 13.565 48.424,13.200 49.196,13.200 49.953 C 13.200 50.884,13.003 51.172,12.300 51.272 C 11.539 51.380,11.382 51.681,11.282 53.213 C 11.189 54.634,10.973 55.110,10.282 55.413 C 9.619 55.704,9.371 56.200,9.281 57.413 C 9.192 58.626,8.944 59.122,8.281 59.413 C 7.562 59.729,7.378 60.183,7.280 61.887 C 7.184 63.541,6.956 64.134,6.180 64.745 C 5.355 65.393,5.200 65.859,5.200 67.688 C 5.200 69.488,5.029 70.022,4.200 70.800 C 3.276 71.668,3.200 72.014,3.200 75.375 C 3.200 78.761,3.138 79.037,2.300 79.405 L 1.400 79.800 1.299 201.518 L 1.199 323.237 2.199 324.164 C 3.100 324.999,3.200 325.400,3.200 328.165 C 3.200 330.929,3.301 331.331,4.200 332.165 C 5.036 332.940,5.200 333.457,5.200 335.317 C 5.200 337.448,5.832 338.800,6.829 338.800 C 7.033 338.800,7.200 339.700,7.200 340.800 C 7.200 342.667,7.267 342.800,8.200 342.800 C 9.133 342.800,9.200 342.933,9.200 344.800 C 9.200 346.667,9.267 346.800,10.200 346.800 C 11.122 346.800,11.200 346.944,11.200 348.642 C 11.200 350.131,11.392 350.636,12.200 351.271 C 12.919 351.837,13.200 352.443,13.200 353.429 C 13.200 354.616,13.331 354.800,14.177 354.800 C 15.040 354.800,15.168 354.998,15.277 356.500 C 15.372 357.813,15.605 358.290,16.300 358.595 C 16.852 358.837,17.200 359.340,17.200 359.895 C 17.200 360.594,17.428 360.800,18.200 360.800 C 19.005 360.800,19.200 360.999,19.200 361.818 C 19.200 362.378,19.637 363.273,20.171 363.807 C 20.705 364.341,21.200 365.188,21.271 365.689 C 21.353 366.269,21.718 366.645,22.275 366.725 C 22.821 366.802,23.198 367.179,23.275 367.725 C 23.354 368.279,23.730 368.647,24.300 368.728 C 24.951 368.820,25.200 369.124,25.200 369.828 C 25.200 370.598,25.408 370.800,26.200 370.800 C 27.000 370.800,27.200 371.000,27.200 371.800 C 27.200 372.600,27.400 372.800,28.200 372.800 C 29.000 372.800,29.200 373.000,29.200 373.800 C 29.200 374.600,29.400 374.800,30.200 374.800 C 31.000 374.800,31.200 375.000,31.200 375.800 C 31.200 376.592,31.402 376.800,32.172 376.800 C 32.876 376.800,33.180 377.049,33.272 377.700 C 33.353 378.270,33.721 378.646,34.275 378.725 C 34.821 378.802,35.198 379.179,35.275 379.725 C 35.355 380.282,35.731 380.647,36.311 380.729 C 36.812 380.800,37.659 381.295,38.193 381.829 C 38.727 382.363,39.622 382.800,40.182 382.800 C 41.001 382.800,41.200 382.995,41.200 383.800 C 41.200 384.572,41.406 384.800,42.105 384.800 C 42.660 384.800,43.163 385.148,43.405 385.700 C 43.710 386.395,44.187 386.628,45.500 386.723 C 47.002 386.832,47.200 386.960,47.200 387.823 C 47.200 388.669,47.384 388.800,48.571 388.800 C 49.557 388.800,50.163 389.081,50.729 389.800 C 51.259 390.474,51.911 390.800,52.729 390.800 C 53.546 390.800,54.198 391.126,54.729 391.800 C 55.259 392.474,55.911 392.800,56.729 392.800 C 57.546 392.800,58.198 393.126,58.729 393.800 C 59.353 394.594,59.875 394.800,61.263 394.800 C 62.691 394.800,63.082 394.964,63.405 395.700 C 63.750 396.486,64.143 396.615,66.500 396.718 C 67.985 396.783,69.200 396.995,69.200 397.190 C 69.200 398.329,70.553 398.800,73.829 398.800 C 76.559 398.800,77.200 398.914,77.200 399.400 C 77.200 399.932,91.222 400.000,201.000 400.000 C 310.778 400.000,324.800 399.932,324.800 399.400 C 324.800 398.907,325.511 398.800,328.800 398.800 L 332.800 398.800 332.800 397.800 C 332.800 396.822,332.867 396.800,335.800 396.800 C 338.718 396.800,338.800 396.773,338.800 395.818 C 338.800 394.885,338.932 394.831,341.500 394.718 C 343.840 394.616,344.252 394.482,344.587 393.718 C 344.890 393.027,345.366 392.811,346.787 392.718 C 348.306 392.619,348.620 392.457,348.725 391.721 C 348.831 390.979,349.144 390.823,350.725 390.721 C 352.321 390.618,352.619 390.466,352.728 389.700 C 352.820 389.049,353.124 388.800,353.828 388.800 C 354.598 388.800,354.800 388.592,354.800 387.800 C 354.800 386.867,354.933 386.800,356.800 386.800 C 358.667 386.800,358.800 386.733,358.800 385.800 C 358.800 385.000,359.000 384.800,359.800 384.800 C 360.594 384.800,360.800 384.599,360.800 383.822 C 360.800 382.939,360.985 382.832,362.700 382.722 C 364.321 382.618,364.619 382.468,364.728 381.700 C 364.820 381.049,365.124 380.800,365.828 380.800 C 366.598 380.800,366.800 380.592,366.800 379.800 C 366.800 379.000,367.000 378.800,367.800 378.800 C 368.600 378.800,368.800 378.600,368.800 377.800 C 368.800 377.000,369.000 376.800,369.800 376.800 C 370.600 376.800,370.800 376.600,370.800 375.800 C 370.800 375.000,371.000 374.800,371.800 374.800 C 372.600 374.800,372.800 374.600,372.800 373.800 C 372.800 373.000,373.000 372.800,373.800 372.800 C 374.600 372.800,374.800 372.600,374.800 371.800 C 374.800 371.000,375.000 370.800,375.800 370.800 C 376.600 370.800,376.800 370.600,376.800 369.800 C 376.800 369.000,377.000 368.800,377.800 368.800 C 378.600 368.800,378.800 368.600,378.800 367.800 C 378.800 367.000,379.000 366.800,379.800 366.800 C 380.592 366.800,380.800 366.598,380.800 365.828 C 380.800 365.124,381.049 364.820,381.700 364.728 C 382.468 364.619,382.618 364.321,382.722 362.700 C 382.832 360.985,382.939 360.800,383.822 360.800 C 384.599 360.800,384.800 360.594,384.800 359.800 C 384.800 359.000,385.000 358.800,385.800 358.800 C 386.733 358.800,386.800 358.667,386.800 356.800 C 386.800 354.933,386.867 354.800,387.800 354.800 C 388.592 354.800,388.800 354.598,388.800 353.828 C 388.800 353.124,389.049 352.820,389.700 352.728 C 390.466 352.619,390.618 352.321,390.721 350.725 C 390.823 349.144,390.979 348.831,391.721 348.725 C 392.457 348.620,392.619 348.306,392.718 346.787 C 392.811 345.366,393.027 344.890,393.718 344.587 C 394.482 344.252,394.616 343.840,394.718 341.500 C 394.831 338.932,394.885 338.800,395.818 338.800 C 396.773 338.800,396.800 338.718,396.800 335.800 C 396.800 332.867,396.822 332.800,397.800 332.800 L 398.800 332.800 398.800 328.800 C 398.800 325.511,398.907 324.800,399.400 324.800 C 399.932 324.800,400.000 310.778,400.000 201.000 C 400.000 92.634,399.927 77.200,399.415 77.200 C 398.952 77.200,398.806 76.428,398.715 73.500 C 398.610 70.123,398.523 69.766,397.716 69.412 C 396.954 69.078,396.817 68.664,396.716 66.412 C 396.615 64.145,396.481 63.748,395.700 63.405 C 394.964 63.082,394.800 62.691,394.800 61.263 C 394.800 59.875,394.594 59.353,393.800 58.729 C 393.076 58.159,392.800 57.558,392.800 56.553 C 392.800 55.604,392.483 54.846,391.800 54.164 C 391.250 53.614,390.800 52.714,390.800 52.164 C 390.800 51.614,390.350 50.714,389.800 50.164 C 389.250 49.614,388.800 48.722,388.800 48.182 C 388.800 47.407,388.594 47.200,387.823 47.200 C 386.960 47.200,386.832 47.002,386.723 45.500 C 386.628 44.187,386.395 43.710,385.700 43.405 C 385.148 43.163,384.800 42.660,384.800 42.105 C 384.800 41.406,384.572 41.200,383.800 41.200 C 382.995 41.200,382.800 41.001,382.800 40.182 C 382.800 39.622,382.363 38.727,381.829 38.193 C 381.295 37.659,380.800 36.812,380.729 36.311 C 380.646 35.722,380.282 35.355,379.700 35.272 C 379.049 35.180,378.800 34.876,378.800 34.172 C 378.800 33.402,378.592 33.200,377.800 33.200 C 377.000 33.200,376.800 33.000,376.800 32.200 C 376.800 31.400,376.600 31.200,375.800 31.200 C 375.000 31.200,374.800 31.000,374.800 30.200 C 374.800 29.400,374.600 29.200,373.800 29.200 C 373.000 29.200,372.800 29.000,372.800 28.200 C 372.800 27.400,372.600 27.200,371.800 27.200 C 371.000 27.200,370.800 27.000,370.800 26.200 C 370.800 25.400,370.600 25.200,369.800 25.200 C 369.000 25.200,368.800 25.000,368.800 24.200 C 368.800 23.408,368.598 23.200,367.828 23.200 C 367.124 23.200,366.820 22.951,366.728 22.300 C 366.645 21.718,366.278 21.354,365.689 21.271 C 365.188 21.200,364.341 20.705,363.807 20.171 C 363.273 19.637,362.378 19.200,361.818 19.200 C 360.999 19.200,360.800 19.005,360.800 18.200 C 360.800 17.428,360.594 17.200,359.895 17.200 C 359.340 17.200,358.837 16.852,358.595 16.300 C 358.290 15.605,357.813 15.372,356.500 15.277 C 354.998 15.168,354.800 15.040,354.800 14.177 C 354.800 13.331,354.616 13.200,353.429 13.200 C 352.443 13.200,351.837 12.919,351.271 12.200 C 350.741 11.526,350.089 11.200,349.271 11.200 C 348.454 11.200,347.802 10.874,347.271 10.200 C 346.636 9.392,346.131 9.200,344.642 9.200 C 342.944 9.200,342.800 9.122,342.800 8.200 C 342.800 7.267,342.667 7.200,340.800 7.200 C 339.700 7.200,338.800 7.033,338.800 6.829 C 338.800 5.832,337.448 5.200,335.317 5.200 C 333.457 5.200,332.940 5.036,332.165 4.200 C 331.331 3.301,330.929 3.200,328.165 3.200 C 325.401 3.200,324.999 3.099,324.165 2.200 L 323.238 1.200 201.489 1.200 L 79.739 1.200 78.815 2.184 M197.539 44.754 C 198.445 45.328,197.908 46.587,196.697 46.727 C 195.517 46.863,195.009 45.105,196.100 44.665 C 196.830 44.370,196.945 44.377,197.539 44.754 M200.647 49.614 C 201.165 49.635,205.888 56.573,210.576 64.200 C 213.526 68.999,215.463 72.105,218.400 76.749 C 219.610 78.662,220.780 80.529,221.000 80.898 C 221.349 81.483,223.690 85.153,228.207 92.200 C 228.912 93.300,230.439 95.730,231.600 97.600 C 232.761 99.470,234.288 101.900,234.994 103.000 C 235.699 104.100,237.500 106.980,238.994 109.400 C 240.489 111.820,242.344 114.790,243.117 116.000 C 243.889 117.210,244.913 118.830,245.391 119.600 C 245.870 120.370,246.774 121.810,247.400 122.800 C 248.026 123.790,248.957 125.275,249.469 126.100 C 249.981 126.925,250.888 128.340,251.485 129.245 C 252.082 130.149,252.757 131.231,252.985 131.649 C 253.213 132.066,255.905 136.411,258.967 141.304 C 262.029 146.197,266.872 153.980,269.730 158.600 C 272.587 163.220,275.322 167.630,275.808 168.400 C 278.523 172.705,290.415 192.255,295.882 201.400 C 314.083 231.845,317.404 237.456,321.217 244.200 C 322.460 246.400,325.279 251.350,327.480 255.200 C 329.681 259.050,332.273 263.613,333.241 265.341 C 334.208 267.068,335.370 269.138,335.822 269.941 C 338.355 274.433,339.024 275.636,340.306 278.000 C 341.081 279.430,344.028 284.769,346.854 289.864 C 349.680 294.959,352.595 300.269,353.330 301.664 C 354.066 303.059,355.029 304.830,355.470 305.600 C 356.718 307.780,356.846 309.093,355.839 309.364 C 351.755 310.460,234.910 308.859,198.400 307.207 C 193.670 306.993,184.130 306.625,177.200 306.389 C 170.270 306.153,160.640 305.790,155.800 305.582 C 136.924 304.773,84.104 304.306,64.079 304.772 C 53.452 305.019,44.587 305.116,44.379 304.987 C 43.543 304.471,44.126 302.679,46.793 297.560 C 48.329 294.612,49.857 291.570,50.189 290.800 C 50.520 290.030,50.967 289.130,51.181 288.800 C 51.395 288.470,52.855 285.680,54.425 282.600 C 55.995 279.520,58.221 275.200,59.371 273.000 C 60.522 270.800,62.960 266.120,64.791 262.600 C 71.740 249.236,76.111 240.949,78.402 236.800 C 79.434 234.930,81.322 231.420,82.596 229.000 C 83.871 226.580,85.044 224.420,85.203 224.200 C 85.363 223.980,85.987 222.900,86.591 221.800 C 95.948 204.751,121.932 161.302,145.079 124.000 C 155.150 107.770,167.582 87.975,170.200 84.000 C 170.707 83.230,173.953 78.100,177.412 72.600 C 184.580 61.206,185.809 59.279,187.900 56.167 C 188.725 54.940,189.760 53.357,190.200 52.652 C 190.640 51.946,191.405 50.970,191.900 50.484 C 192.395 49.998,192.800 49.420,192.800 49.200 C 192.800 48.980,193.046 48.800,193.346 48.800 C 194.688 48.800,192.046 54.879,185.264 67.400 C 184.191 69.380,182.468 72.620,181.435 74.600 C 180.402 76.580,178.978 79.280,178.270 80.600 C 177.563 81.920,175.479 85.880,173.639 89.400 C 171.798 92.920,169.980 96.340,169.598 97.000 C 169.217 97.660,167.778 100.360,166.402 103.000 C 165.026 105.640,163.405 108.700,162.800 109.800 C 162.195 110.900,160.799 113.510,159.699 115.600 C 158.599 117.690,157.071 120.570,156.303 122.000 C 155.536 123.430,153.328 127.570,151.397 131.200 C 149.467 134.830,147.192 139.031,146.343 140.536 C 145.495 142.041,144.800 143.355,144.800 143.457 C 144.800 143.559,143.657 145.748,142.260 148.321 C 140.863 150.895,137.326 157.410,134.399 162.800 C 123.854 182.223,110.467 206.262,104.216 217.000 C 94.447 233.782,88.370 243.783,79.021 258.464 C 77.712 260.519,75.448 264.090,73.990 266.400 C 72.531 268.710,70.111 272.490,68.613 274.800 C 67.114 277.110,65.306 279.900,64.595 281.000 C 63.884 282.100,61.573 285.657,59.460 288.904 C 53.704 297.746,53.416 298.639,56.026 299.549 C 58.881 300.544,139.519 299.858,165.400 298.619 C 172.220 298.292,183.740 297.837,191.000 297.607 C 198.260 297.377,208.430 297.012,213.600 296.796 C 233.390 295.970,250.738 295.600,289.596 295.177 C 316.330 294.885,329.961 294.598,330.296 294.320 C 331.427 293.381,331.095 292.478,327.400 286.448 C 326.300 284.653,325.218 282.873,324.995 282.492 C 324.772 282.111,323.872 280.572,322.995 279.071 C 322.118 277.570,321.218 276.040,320.995 275.671 C 320.257 274.450,317.410 269.566,316.800 268.473 C 316.470 267.883,315.570 266.350,314.800 265.066 C 312.407 261.076,311.493 259.499,308.481 254.167 C 306.875 251.325,305.345 248.647,305.081 248.215 C 304.816 247.783,304.222 246.793,303.760 246.015 C 302.391 243.707,283.281 209.007,277.097 197.600 C 276.441 196.390,275.408 194.500,274.802 193.400 C 274.195 192.300,272.840 189.780,271.790 187.800 C 269.252 183.014,263.458 172.097,261.600 168.600 C 260.782 167.060,256.916 159.770,253.009 152.400 C 249.102 145.030,245.141 137.560,244.205 135.800 C 243.270 134.040,239.939 127.740,236.805 121.800 C 231.688 112.105,223.161 96.003,218.586 87.400 C 205.772 63.300,200.487 52.935,200.148 51.241 C 200.004 50.521,199.642 49.837,199.343 49.723 C 199.044 49.608,198.800 49.146,198.800 48.696 C 198.800 47.887,198.808 47.887,199.547 48.739 C 199.958 49.212,200.453 49.606,200.647 49.614 " stroke="none" fill="#040404" fill-rule="evenodd"></path></g></svg>